HIERARCHY
ROOT Hips
{
	OFFSET	0.00	0.00	0.00
	CHANNELS 6 Xposition Yposition Zposition Zrotation Xrotation Yrotation
	JOINT LeftUpLeg
	{
		OFFSET	 0.126116	-0.014019	-0.065224
		CHANNELS 3 Zrotation Xrotation Yrotation
		JOINT LeftLeg
		{
			OFFSET	 0.000000	 0.000000	 0.569914
			CHANNELS 3 Zrotation Xrotation Yrotation
			JOINT LeftFoot
			{
				OFFSET	 0.000000	 0.000000	 0.544423
				CHANNELS 3 Zrotation Xrotation Yrotation
				JOINT LeftToeBase
				{
					OFFSET	 0.000000	 0.000000	 0.207117
					CHANNELS 3 Zrotation Xrotation Yrotation
					End Site
					{
						OFFSET	 0.000000	 0.000000	 0.207117
					}
				}
			}
		}
	}
	JOINT RightUpLeg
	{
		OFFSET	-0.124023	-0.008373	-0.065224
		CHANNELS 3 Zrotation Xrotation Yrotation
		JOINT RightLeg
		{
			OFFSET	 0.000000	 0.000000	 0.570047
			CHANNELS 3 Zrotation Xrotation Yrotation
			JOINT RightFoot
			{
				OFFSET	 0.000000	 0.000000	 0.544354
				CHANNELS 3 Zrotation Xrotation Yrotation
				JOINT RightToeBase
				{
					OFFSET	 0.000000	 0.000000	 0.207540
					CHANNELS 3 Zrotation Xrotation Yrotation
					End Site
					{
						OFFSET	 0.000000	 0.000000	 0.207540
					}
				}
			}
		}
	}
	JOINT Spine
	{
		OFFSET	 0.000184	-0.007763	 0.117403
		CHANNELS 3 Zrotation Xrotation Yrotation
		JOINT Spine1
		{
			OFFSET	 0.000000	 0.000000	 0.137269
			CHANNELS 3 Zrotation Xrotation Yrotation
			JOINT Spine2
			{
				OFFSET	 0.000000	 0.000000	 0.156879
				CHANNELS 3 Zrotation Xrotation Yrotation
				JOINT LeftShoulder
				{
					OFFSET	 0.080501	-0.002496	 0.160144
					CHANNELS 3 Zrotation Xrotation Yrotation
					JOINT LeftArm
					{
						OFFSET	 0.000000	 0.000000	 0.164363
						CHANNELS 3 Zrotation Xrotation Yrotation
						JOINT LeftForeArm
						{
							OFFSET	 0.000000	 0.000000	 0.364576
							CHANNELS 3 Zrotation Xrotation Yrotation
							JOINT LeftHand
							{
								OFFSET	 0.000000	 0.000000	 0.360812
								CHANNELS 3 Zrotation Xrotation Yrotation
								JOINT LeftHandIndex1
								{
									OFFSET	 0.000000	 0.000000	 0.086006
									CHANNELS 3 Zrotation Xrotation Yrotation
									JOINT LeftHandIndex2
									{
										OFFSET	 0.000000	 0.000000	 0.047237
										CHANNELS 3 Zrotation Xrotation Yrotation
										JOINT LeftHandIndex3
										{
											OFFSET	-0.004284	-0.000551	 0.038165
											CHANNELS 3 Zrotation Xrotation Yrotation
											End Site
											{
												OFFSET	-0.004284	-0.000551	 0.038165
											}
										}
									}
								}
							}
						}
					}
				}
				JOINT Neck
				{
					OFFSET	 0.000000	 0.000000	 0.176489
					CHANNELS 3 Zrotation Xrotation Yrotation
					JOINT Head
					{
						OFFSET	 0.000000	-0.001747	 0.077940
						CHANNELS 3 Zrotation Xrotation Yrotation
						End Site
						{
							OFFSET	 0.000000	-0.001747	 0.077940
						}
					}
				}
				JOINT RightShoulder
				{
					OFFSET	-0.080363	 0.000306	 0.159706
					CHANNELS 3 Zrotation Xrotation Yrotation
					JOINT RightArm
					{
						OFFSET	 0.000000	 0.000000	 0.164196
						CHANNELS 3 Zrotation Xrotation Yrotation
						JOINT RightForeArm
						{
							OFFSET	 0.000000	 0.000000	 0.365611
							CHANNELS 3 Zrotation Xrotation Yrotation
							JOINT RightHand
							{
								OFFSET	 0.000000	 0.000000	 0.360648
								CHANNELS 3 Zrotation Xrotation Yrotation
								JOINT RightHandIndex1
								{
									OFFSET	 0.000000	 0.000000	 0.069977
									CHANNELS 3 Zrotation Xrotation Yrotation
									JOINT RightHandIndex2
									{
										OFFSET	 0.000000	 0.000000	 0.052305
										CHANNELS 3 Zrotation Xrotation Yrotation
										JOINT RightHandIndex3
										{
											OFFSET	 0.009002	-0.000782	 0.042196
											CHANNELS 3 Zrotation Xrotation Yrotation
											End Site
											{
												OFFSET	 0.009002	-0.000782	 0.042196
											}
										}
									}
								}
							}
						}
					}
				}
			}
		}
	}
}
MOTION
Frames:    12
Frame Time: 0.03333334
-0.719855	-1.661173	 1.274649	-178.003400	 4.517206	-0.124499	 0.989407	-6.910434	 177.871900	 0.219656	-12.448620	 0.468369	-24.912290	 60.911310	 13.226410	-2.385833	 28.452760	 0.000004	-11.079150	-8.329068	-178.749900	-6.796549	-14.435470	 1.024669	 19.563940	 71.657680	-9.632203	 2.384659	 28.388700	-0.000001	 1.595704	 6.988275	 1.082722	 0.518888	-12.579640	-12.501360	-3.415247	-3.346646	 16.653700	-91.776240	 78.527380	-180.000000	-20.690220	-12.459380	-14.135470	-4.847342	-0.086326	-0.480226	 9.562700	-1.802256	-4.890425	-4.131196	 21.524690	 0.986298	-5.167839	 0.733520	 3.519257	-1.378229	 35.397820	-2.634230	 1.408921	 4.540467	-0.148220	-16.984310	-4.670526	-4.029125	 89.782120	 78.203870	 180.000000	 8.334162	-3.421441	 6.877093	-4.267544	-0.142284	 0.463056	-20.178400	 25.337790	 45.388450	 5.715225	 19.176060	-3.692089	 5.027514	 0.245388	-9.378011	-2.350882	 35.473990	 5.254307
-0.719036	-1.659257	 1.274641	-177.189000	 5.554929	-1.023095	 1.932090	-8.137603	 178.635800	-0.746806	-13.101640	 0.273257	-22.492380	 57.908050	 12.442760	-2.385833	 28.452760	 0.000004	-10.447410	-10.397560	-178.046200	-4.718476	-15.871470	 1.696716	 9.587552	 75.790790	-0.598979	 2.384659	 28.388700	-0.000001	 0.219548	 8.071147	 1.961911	 0.134674	-16.555380	-12.915810	-3.634170	-1.707020	 17.191930	-91.776070	 78.527400	 179.999900	-29.353210	-9.698182	-15.564220	-5.014687	-0.086760	-0.491796	 8.897953	-2.510791	-4.519451	-4.131196	 21.524690	 0.986298	-5.167839	 0.733520	 3.519257	-1.378229	 35.397820	-2.634230	 1.648798	 6.923240	 0.124138	-16.832960	-8.168365	-5.293626	 89.782170	 78.203920	 179.999900	 10.483830	-1.756273	 7.350744	-7.056800	-0.166958	 0.463215	-26.358010	 30.773310	 57.931960	 5.715225	 19.176060	-3.692089	 5.027514	 0.245388	-9.378011	-2.350882	 35.473990	 5.254307
-0.718137	-1.657899	 1.274412	-176.924000	 5.807502	-1.493089	 2.306148	-8.545615	 178.972100	-0.792880	-13.762630	 0.275820	-22.308220	 57.223180	 12.589780	-2.385833	 28.452760	 0.000004	-9.394769	-11.196560	-177.557900	-4.780768	-16.664670	 1.761055	 7.921071	 77.976070	 1.384099	 2.384659	 28.388700	-0.000001	-0.347368	 8.231360	 2.337051	-0.182184	-17.121570	-12.915590	-3.649941	-1.473258	 17.126050	-91.776120	 78.527380	 180.000000	-31.594890	-8.564843	-15.587200	-5.299404	-0.085256	-0.498540	 8.398079	-2.813981	-4.385238	-4.131196	 21.524690	 0.986298	-5.167839	 0.733520	 3.519257	-1.378229	 35.397820	-2.634230	 1.618438	 7.444787	 0.355976	-16.733320	-8.752147	-5.467854	 89.782100	 78.203930	-180.000000	 10.869770	-0.851653	 7.690554	-7.487806	-0.172806	 0.468951	-27.777320	 32.151910	 61.040840	 5.715225	 19.176060	-3.692089	 5.027514	 0.245388	-9.378011	-2.350882	 35.473990	 5.254307
-0.715728	-1.654246	 1.273739	-176.529500	 6.203691	-2.210596	 2.784211	-9.483801	 179.258400	-0.570863	-15.907610	 0.378651	-23.140480	 56.559600	 13.898220	-2.385833	 28.452760	 0.000004	-7.398041	-12.658320	-176.666600	-5.163136	-18.081620	 1.786067	 6.271093	 81.539350	 3.683783	 2.384659	 28.388700	-0.000001	-1.497775	 8.234365	 2.951733	-1.105134	-17.161740	-13.549910	-3.543090	-1.511743	 17.322200	-91.776170	 78.527400	 180.000000	-33.425330	-2.675669	-1.010715	-6.960706	-4.504792	-28.935010	 7.619976	-3.320046	-4.158450	-4.131196	 21.524690	 0.986298	-5.167839	 0.733520	 3.519257	-1.378229	 35.397820	-2.634230	 1.538343	 8.105419	 0.774768	-16.558410	-9.387300	-5.626197	 89.782070	 78.203920	-180.000000	 10.751090	 1.519797	 8.636025	-8.021578	-0.181966	 0.481856	-28.943810	 32.744970	 64.270650	 5.715225	 19.176060	-3.692089	 5.027514	 0.245388	-9.378011	-2.350882	 35.473990	 5.254307
-0.711929	-1.648470	 1.272584	-176.395900	 6.337788	-2.557811	 2.607207	-10.390640	 178.814900	 0.492513	-19.292430	 0.808118	-26.543470	 56.960890	 17.239700	-2.385833	 28.452760	 0.000004	-5.271411	-14.152130	-175.911700	-6.211481	-19.753180	 1.587827	 18.520710	 84.104620	-7.699630	 2.384659	 28.388700	-0.000001	-2.765045	 7.653129	 3.322474	-2.602787	-14.767370	-15.217580	-3.106232	-2.696072	 18.018980	-91.776150	 78.527380	 180.000000	-31.290770	 3.054805	 12.824650	-9.844145	-7.123562	-53.710830	 7.206170	-3.569507	-4.012567	-4.131196	 21.524690	 0.986298	-5.167839	 0.733520	 3.519257	-1.378229	 35.397820	-2.634230	 1.414120	 7.984046	 1.148959	-16.402270	-8.888676	-5.388402	 89.782110	 78.203890	 180.000000	 8.468425	 9.045141	-6.319253	-4.347238	-11.738020	 33.360240	-17.584160	 40.800930	 45.642060	 5.715225	 19.176060	-3.692089	 5.027514	 0.245388	-9.378011	-2.350882	 35.473990	 5.254307
-0.707058	-1.640541	 1.271231	-176.315300	 6.575336	-2.824910	 1.874635	-11.128570	 178.004400	 1.736847	-22.869530	 1.435336	-30.909990	 57.422290	 21.606640	-2.385833	 28.452760	 0.000004	-3.827095	-16.692600	-175.152200	-6.817769	-22.713720	 1.578660	 37.589670	 84.985770	-26.338360	 2.384659	 28.388700	-0.000001	-4.490199	 6.796564	 3.579247	-4.548979	-11.173750	-17.559380	-2.324143	-4.553323	 19.264130	-91.776120	 78.527400	 179.999900	-28.867240	 10.474240	 24.744190	-12.818730	-8.026353	-74.429750	 6.776355	-3.816906	-3.867945	-4.131196	 21.524690	 0.986298	-5.167839	 0.733520	 3.519257	-1.378229	 35.397820	-2.634230	 1.422454	 7.987266	 1.310895	-16.300360	-8.797739	-5.336609	 89.782080	 78.203890	 180.000000	 5.710958	 16.839510	-12.094310	 0.020409	-16.346100	 51.080330	-11.239870	 39.815400	 33.662280	 5.715225	 19.176060	-3.692089	 5.027514	 0.245388	-9.378011	-2.350882	 35.473990	 5.254307
-0.700917	-1.629813	 1.269755	-176.310200	 7.047655	-2.969443	 0.422734	-11.568400	 176.763200	 3.162508	-26.357390	 2.295746	-36.461970	 57.732550	 27.195760	-2.385833	 28.452760	 0.000004	-3.040652	-19.880220	-174.291600	-6.992785	-25.660910	 1.694257	 46.732630	 83.640820	-35.586030	 2.384659	 28.388700	-0.000001	-6.759477	 5.406528	 3.436010	-6.922058	-5.859900	-20.046120	-1.032249	-7.299420	 20.870850	-91.776270	 78.527400	-179.999900	-24.340460	 21.442870	 33.764570	-15.289020	-7.772484	-91.792660	 6.316111	-4.068528	-3.718020	-4.131196	 21.524690	 0.986298	-5.167839	 0.733520	 3.519257	-1.378229	 35.397820	-2.634230	 1.564417	 8.117415	 1.263574	-16.249510	-9.116206	-5.467972	 89.782170	 78.203900	 179.999900	 1.558865	 27.157620	-14.015730	 4.120015	-18.868580	 64.671100	-10.025230	 34.987320	 25.037680	 5.715225	 19.176060	-3.692089	 5.027514	 0.245388	-9.378011	-2.350882	 35.473990	 5.254307
-0.693520	-1.616265	 1.268279	-176.438000	 7.983443	-2.892483	-1.509270	-11.699230	 175.125000	 4.327090	-29.308870	 3.083153	-41.477690	 57.414790	 32.624380	-2.385833	 28.452760	 0.000004	-2.371638	-23.656740	-173.407600	-6.783419	-28.175040	 1.946467	 38.483750	 78.758040	-28.250650	 2.384659	 28.388700	-0.000001	-9.378337	 3.371492	 2.328470	-9.560789	 0.687654	-21.333700	 0.522114	-10.590290	 22.068770	-91.776100	 78.527420	 179.999900	-14.043440	 35.934140	 32.616830	-16.513650	-7.323808	-101.363800	 6.072176	-4.189752	-3.642367	-4.131196	 21.524690	 0.986298	-5.167839	 0.733520	 3.519257	-1.378229	 35.397820	-2.634230	 1.694449	 8.206388	 1.109357	-16.234160	-9.294803	-5.446230	 89.782100	 78.203900	 180.000000	-4.536730	 39.704520	-10.690890	 6.266349	-20.025030	 71.449820	-15.664360	 27.246960	 20.584510	 5.715225	 19.176060	-3.692089	 5.027514	 0.245388	-9.378011	-2.350882	 35.473990	 5.254307
-0.684691	-1.598979	 1.267139	-176.697900	 9.703641	-2.626646	-4.019646	-11.538090	 173.167900	 5.237020	-31.317970	 3.751180	-46.380730	 56.480960	 37.973350	-2.385833	 28.452760	 0.000004	-1.881292	-28.233650	-172.492000	-6.401083	-30.014170	 2.254071	 30.993930	 71.553450	-22.432920	 2.384659	 28.388700	-0.000001	-12.318950	 0.328681	-0.095873	-12.621200	 8.034618	-20.650770	 2.112808	-14.170650	 22.561510	-91.776150	 78.527360	 180.000000	 4.928833	 47.749890	 11.588830	-16.014420	-7.199069	-97.685690	 5.920869	-4.254221	-3.599401	-4.131196	 21.524690	 0.986298	-5.167839	 0.733520	 3.519257	-1.378229	 35.397820	-2.634230	 1.823919	 8.278684	 0.899032	-16.234300	-9.413790	-5.351868	 89.782090	 78.203900	-180.000000	-14.334630	 52.934650	 0.220111	 4.897454	-20.028460	 67.888240	-26.820440	 16.076500	 20.499860	 5.715225	 19.176060	-3.692089	 5.027514	 0.245388	-9.378011	-2.350882	 35.473990	 5.254307
-0.675231	-1.580604	 1.266281	-176.789100	 11.450300	-1.719151	-6.080970	-10.883270	 170.648200	 3.680713	-32.425050	 3.027248	-45.513580	 53.673430	 39.861300	-2.385833	 28.452760	 0.000004	-1.692533	-32.067820	-172.353100	-6.776344	-30.820590	 2.115632	 30.386160	 67.747000	-22.554760	 2.384659	 28.388700	-0.000001	-15.369470	-2.202095	-4.099429	-15.635120	 13.891130	-17.797290	 3.198743	-17.173250	 22.044240	-91.776150	 78.527420	 180.000000	 19.294520	 50.345210	-15.540820	-13.919890	-7.283890	-81.195660	 5.834196	-4.411139	-3.576394	-4.131196	 21.524690	 0.986298	-5.167839	 0.733520	 3.519257	-1.378229	 35.397820	-2.634230	 2.060488	 8.370773	 0.513404	-16.221800	-9.657459	-4.974996	 89.782070	 78.294710	-179.975300	-26.062020	 61.958630	 17.104980	 0.129467	-17.915290	 53.802810	-36.657110	 2.526136	 22.855480	 5.715225	 19.176060	-3.692089	 5.027514	 0.245388	-9.378011	-2.350882	 35.473990	 5.254307
-0.657536	-1.549145	 1.265482	-176.872100	 13.432380	-0.440815	-7.852494	-8.885210	 167.380800	 1.864098	-32.324870	 2.042758	-40.001450	 47.524810	 38.501060	-2.385833	 28.452760	 0.000004	-1.908918	-36.019390	-172.706800	-7.606310	-31.091040	 1.702376	 30.453070	 63.513440	-23.354350	 2.384659	 28.388700	-0.000001	-19.145610	-4.446492	-9.509359	-19.309000	 18.855700	-12.859770	 3.747399	-19.894210	 20.412170	-91.776130	 78.527420	 180.000000	 22.236740	 48.964240	-43.944730	-9.563647	-5.329783	-44.085300	 5.734311	-4.667972	-3.552900	-4.131196	 21.524690	 0.986298	-5.167839	 0.733520	 3.519257	-1.378229	 35.397820	-2.634230	 2.386564	 8.591868	 0.065861	-16.164790	-9.996204	-4.573606	 89.781980	 78.315290	-179.969700	-36.435690	 66.212940	 45.592010	-8.673588	-5.207934	 13.009930	-43.175990	-23.932960	 30.059720	 5.715225	 19.176060	-3.692089	 5.027514	 0.245388	-9.378011	-2.350882	 35.473990	 5.254307
-0.650257	-1.537502	 1.265342	-176.880100	 13.597840	-0.197110	-7.574456	-7.926593	 166.621500	 1.511111	-31.871580	 1.830250	-36.834070	 44.640880	 36.983130	-2.385833	 28.452760	 0.000004	-2.059858	-36.470010	-172.924300	-7.908641	-31.068120	 1.544929	 30.858680	 62.773570	-23.885370	 2.384659	 28.388700	-0.000001	-19.870690	-4.624772	-10.357280	-19.903170	 19.519860	-11.833880	 3.706968	-20.260930	 19.824420	-91.776150	 78.527430	 180.000000	 20.950360	 48.826090	-48.999780	-8.613050	-4.347847	-33.944710	 5.716379	-4.747190	-3.551605	-4.131196	 21.524690	 0.986298	-5.167839	 0.733520	 3.519257	-1.378229	 35.397820	-2.634230	 2.449308	 8.715655	 0.046334	-16.124480	-10.063820	-4.604261	 89.781960	 78.318600	-179.969000	-36.030500	 66.014760	 51.322600	-9.158471	-0.189231	 0.506370	-42.709060	-30.891290	 32.995110	 5.715225	 19.176060	-3.692089	 5.027514	 0.245388	-9.378011	-2.350882	 35.473990	 5.254307
